<?xml version="1.0" standalone="no"?>
<!DOCTYPE svg PUBLIC "-//W3C//DTD SVG 20010904//EN"
 "http://www.w3.org/TR/2001/REC-SVG-20010904/DTD/svg10.dtd">
<svg version="1.0" xmlns="http://www.w3.org/2000/svg"
 width="700.000000pt" height="700.000000pt" viewBox="0 0 700.000000 700.000000"
 preserveAspectRatio="xMidYMid meet">
<metadata>
Created by potrace 1.14, written by Peter Selinger 2001-2017
</metadata>
<g transform="translate(0.000000,700.000000) scale(0.100000,-0.100000)"
fill="#000000" stroke="none">
<path d="M3377 6634 c-1 -1 -49 -4 -107 -8 -58 -4 -118 -8 -135 -11 -16 -2
-66 -9 -110 -16 -44 -6 -87 -13 -95 -14 -132 -29 -171 -38 -233 -54 -262 -71
-580 -201 -746 -306 -22 -14 -43 -25 -46 -25 -13 0 -270 -177 -355 -245 -485
-387 -847 -911 -1035 -1494 -32 -101 -76 -270 -89 -341 -2 -14 -7 -36 -10 -50
-7 -33 -22 -130 -31 -210 -24 -195 -24 -548 -1 -720 2 -14 7 -48 10 -75 72
-541 308 -1085 663 -1530 103 -129 324 -354 438 -445 44 -35 82 -67 85 -70 5
-5 42 -32 155 -111 77 -54 241 -151 335 -198 47 -24 97 -49 111 -56 46 -25
272 -112 369 -143 186 -59 378 -100 595 -128 177 -22 552 -22 715 1 19 2 58 7
85 11 57 7 268 49 329 65 23 6 48 13 56 14 47 10 282 91 366 126 621 258 1139
705 1494 1289 50 82 209 395 214 422 2 7 8 27 15 43 88 216 169 541 197 790
18 165 23 476 10 605 -10 93 -26 231 -31 260 -3 14 -7 39 -10 55 -3 17 -8 37
-10 45 -2 8 -7 29 -10 45 -2 17 -14 66 -25 110 -11 44 -23 90 -25 101 -25 112
-176 485 -245 604 -198 346 -322 512 -555 745 -291 292 -609 508 -988 671 -74
33 -355 131 -395 139 -10 2 -45 10 -79 19 -33 9 -96 23 -140 31 -43 8 -89 17
-103 20 -14 3 -49 7 -78 11 -29 3 -62 7 -73 9 -57 11 -471 28 -482 19z m388
-448 c11 -2 49 -7 85 -11 75 -8 67 -7 230 -41 108 -22 324 -86 385 -113 11 -5
49 -21 85 -36 210 -89 412 -207 595 -347 128 -98 313 -275 422 -404 182 -215
340 -483 447 -755 58 -150 118 -357 132 -459 3 -25 8 -48 10 -51 2 -4 6 -31
10 -60 3 -30 8 -57 10 -60 8 -14 18 -198 18 -334 1 -161 -8 -307 -23 -395 -6
-30 -12 -71 -15 -90 -2 -19 -7 -46 -10 -60 -3 -14 -9 -41 -13 -60 -4 -19 -8
-37 -8 -40 -126 -496 -361 -916 -710 -1266 -103 -104 -213 -202 -279 -249 -15
-11 -47 -34 -70 -51 -129 -96 -314 -201 -496 -281 -139 -62 -407 -146 -540
-169 -25 -4 -47 -8 -50 -9 -3 -1 -30 -5 -60 -9 -30 -5 -64 -10 -75 -12 -127
-24 -557 -24 -695 1 -14 2 -43 7 -65 10 -44 6 -64 9 -140 25 -27 6 -60 12 -71
14 -12 3 -76 21 -143 41 -584 174 -1106 553 -1449 1050 -151 219 -291 506
-357 730 -10 33 -23 78 -30 100 -14 45 -53 230 -60 290 -3 22 -7 47 -10 55
-18 65 -26 459 -12 602 13 131 17 158 48 312 54 264 151 522 287 766 73 131
188 301 247 366 5 6 33 39 60 73 66 81 242 252 335 326 41 33 77 63 80 66 10
13 247 167 305 199 271 150 571 258 842 304 124 21 170 27 253 33 52 3 96 7
98 8 5 5 374 -4 397 -9z"/>
<path d="M4455 4437 c-17 -6 -39 -16 -50 -23 -11 -8 -317 -311 -681 -674
l-660 -660 -224 224 c-136 137 -240 232 -265 245 -88 44 -204 18 -267 -60 -40
-49 -56 -130 -38 -195 12 -45 38 -74 334 -373 385 -388 401 -399 532 -354 44
15 120 88 805 772 416 416 764 772 774 791 20 37 26 124 12 173 -4 16 -26 48
-48 72 -58 63 -146 87 -224 62z"/>
</g>
</svg>
